<svg width="16" height="24" viewBox="0 0 16 24" fill="none" xmlns="http://www.w3.org/2000/svg">
<path fill-rule="evenodd" clip-rule="evenodd" d="M13.3333 24H2.66667C1.1936 24 0 22.8323 0 21.3913V12C0 10.5595 1.1936 9.3913 2.66667 9.3913H4.8C5.09493 9.3913 5.33333 9.62504 5.33333 9.91304C5.33333 10.201 5.09493 10.4348 4.8 10.4348H2.66667C1.78347 10.4348 1.06667 11.136 1.06667 12V21.3913C1.06667 22.2558 1.78347 22.9565 2.66667 22.9565H13.3333C14.2171 22.9565 14.9333 22.2558 14.9333 21.3913V12C14.9333 11.136 14.2171 10.4348 13.3333 10.4348H11.2C10.9051 10.4348 10.6667 10.201 10.6667 9.91304C10.6667 9.62504 10.9051 9.3913 11.2 9.3913H13.3333C14.8064 9.3913 16 10.5595 16 12V21.3913C16 22.8323 14.8064 24 13.3333 24ZM11.9115 5.0687L8.53333 1.764V15.1304C8.53333 15.419 8.29493 15.6522 8 15.6522C7.70507 15.6522 7.46667 15.419 7.46667 15.1304V1.764L4.08853 5.0687C3.88533 5.26748 3.55573 5.26748 3.352 5.0687C3.1488 4.86991 3.1488 4.54696 3.352 4.34817L7.568 0.223826C7.58507 0.199304 7.59627 0.17113 7.61867 0.148696C7.72267 0.0474782 7.8592 -0.00104349 7.99467 0.00104346C7.9968 0.00104346 7.99787 0 8 0C8.00213 0 8.00373 0.00104346 8.00533 0.00104346C8.14187 -0.000521753 8.27787 0.0474782 8.38133 0.148696C8.4032 0.170609 8.41333 0.197739 8.42987 0.221739L12.648 4.34817C12.8512 4.54696 12.8512 4.86991 12.648 5.0687C12.4443 5.26748 12.1147 5.26748 11.9115 5.0687Z" fill="white"/>
</svg>
